Patient4_TMGait_0pt6_01_left_38_EMG.mot
version=1
nRows=27
nColumns=33
inDegrees=no
endheader
time	1LAddLong	2LGlutMax	3LGlutMed	4LIliopsoas	5LSemiMemb	6LBicFemLong	7LRecFem	8LVastMed	9LVastLat	10LGasMed	11LTibAnt	12lTibPost	13LPeroneusLong	14LSol	15LExtDigLong	16LFlexDigLong	17RAddLong	18RGlutMax	19RGlutMed	20RIliopsoas	21RSemiMemb	22RBicFemLong	23RRecFem	24RVastMed	25RVastLat	26RGasMed	27RTibAnt	28RTibPost	29RPeroneusLong	30RSol	31RExtDigLong	32RFlexDigLong
46.715	0.01297	-0.12009	-0.12497	0.016479	-0.002594	0.13199	0.36957	0.02243	0.012512	-0.068359	0.075989	0.022125	0.010376	-0.11276	0.3775	0.011902	0.007782	0.31464	-0.33096	0.01358	-0.026855	0.10346	0.61706	0.043182	0.03418	-0.025635	0.032196	0.030518	-0.41321	-0.90256	0	-0.013123
46.716	0.009003	-0.10529	-0.088043	0.014801	-0.059204	-0.02243	0.46112	0.014343	-0.06073	-0.058289	0.074463	0.036011	0.10132	0.067902	0.28458	0.021057	0.024719	0.39856	-0.52658	0.041656	-0.000458	0.0354	0.69595	0.10605	0.021973	-0.057068	0.010071	0.019989	-0.42755	-1.0255	0.004883	-0.0177
46.717	0.017395	-0.13092	-0.03418	0.017242	-0.098724	0.044403	0.44708	0.025177	-0.15808	-0.015564	0.063324	0.027313	-0.19745	0.13092	0.14374	0.022125	0.021057	0.50858	-0.51895	0.056152	-0.025787	-0.043488	0.66101	0.12222	0.03006	-0.062256	-0.036011	-0.007019	0.6604	-0.63583	0.003357	-0.012817
46.718	0.027771	-0.20248	-0.041199	0.003967	-0.037537	-0.12192	0.47653	0.031586	-0.15991	0.029449	0.059357	0.047302	-0.097046	0.060883	0.20477	0.036774	0.036011	0.49622	-0.54489	0.074158	-0.042419	-0.094757	0.5809	0.079498	0.038757	-0.052948	-0.06134	0.10025	1.6426	0.037689	0.002441	-0.016632
46.719	0.023041	-0.23224	-0.12024	0.010681	0.010223	-0.33814	0.54398	0.027924	0.000763	0.029297	0.005188	0.03952	0.39276	0.055237	0.23834	0.02121	0.033264	0.43274	-0.66635	0.022736	-0.053558	-0.06012	0.47653	0.096588	0.018921	-0.031128	-0.066681	0.00473	1.3184	0.75531	-0.002747	-0.016479
46.72	0.031738	-0.21286	-0.15335	0.021973	0.045624	-0.35858	0.70343	0.033569	0.043945	0.003357	0.002747	0.052338	0.88592	-0.048218	0.33279	0.024261	0.000916	0.39246	-0.70267	-0.02655	-0.058289	-0.023346	0.48584	0.061188	0.007477	0.004425	-0.007324	-0.097351	0.51895	0.59464	0	-0.012665
46.721	0.016022	-0.2002	-0.088348	-0.007629	0.06424	-0.45761	0.87662	0.044403	0.013428	-0.029755	0.016785	0.059357	0.44922	-0.19257	-0.23132	0.018921	-0.006714	0.41702	-0.68771	-0.083466	-0.041962	-0.073853	0.64835	0.021973	0.016327	0.020905	0.032806	0.037537	0.1857	0.85068	0	0.003204
46.722	0.018921	-0.12833	0.025177	-0.012665	0.08728	-0.50171	0.82047	0.042419	-0.016327	-0.014343	0.03067	0.077667	-0.81711	-0.31525	-0.20721	0.019684	-0.034637	0.36926	-0.64941	-0.10574	-0.050354	-0.054016	0.76035	-0.058594	-0.001221	0.028992	0.000763	0.024414	-0.2272	0.11139	0.000305	-0.006561
46.723	0.020752	-0.11932	0.047455	0.000763	0.072784	-0.23239	0.67978	0.014191	-0.029602	-0.036774	-0.00351	0.07782	0.1294	-0.41107	-0.039215	0.020599	-0.023651	0.38635	-0.73334	-0.039063	-0.054932	-0.085144	0.80154	-0.061951	-0.027313	0.027771	-0.028687	-0.047607	0.16876	-0.42755	-0.004578	-0.003967
46.724	0.009308	-0.10468	0.005798	0.011292	0.041504	-0.016022	0.43686	0.007019	-0.024414	0.02594	-0.002747	0.083466	-0.000458	-0.56412	-0.14587	0.014038	-0.017853	0.28702	-0.79681	0.026398	-0.079193	-0.077209	0.72784	-0.10666	-0.045319	0.027618	-0.010834	-0.21301	0.59692	-0.33127	0.002136	-0.003967
46.725	0.019989	-0.055389	0.1091	0.022278	-0.002289	-0.090485	0.30884	0.001831	-0.18234	0.047302	-0.10712	0.094299	0.36255	-0.43457	-0.31906	0.022125	-0.035248	0.20493	-0.90759	0.14145	-0.09201	-0.06958	0.64011	-0.14236	-0.028076	0.016327	0.018158	-0.19928	0.90607	-0.12161	0.000153	0.003967
46.726	0.011902	-0.010986	0.091858	0.005493	-0.012512	-0.10254	0.34012	0.016327	-0.32928	0.065765	-0.17105	0.090027	0.15472	-0.078583	0.04715	0.006256	-0.054779	0.13702	-0.91385	0.22263	-0.089264	-0.06958	0.95245	-0.12283	-0.046082	0.011902	0.054932	-0.095367	0.72906	0.083923	0.001526	-0.011597
46.727	0.028839	0.036621	-0.036163	-0.024109	-0.02243	-0.051117	0.39612	0.010529	-0.18936	0.022583	-0.17349	0.090485	-0.91065	-0.001526	-0.2652	0.007935	-0.072327	0.061493	-0.92194	0.11932	-0.081177	-0.049286	1.0425	-0.081787	-0.032806	-0.001678	0.064697	0.044708	0.68863	-0.091553	-0.004578	-0.015259
46.728	0.007935	0.059662	-0.17212	-0.02121	-0.018921	0.010986	0.56381	0.011292	-0.16403	0.031586	-0.05249	0.09552	-0.44479	-0.19592	-0.12146	0.009613	-0.090942	0.082703	-0.9256	0.068817	-0.048676	-0.024567	1.1258	-0.046234	-0.009308	-0.014496	0.093384	0.070648	0.47409	-0.17792	-0.000305	-0.012665
46.729	0.007019	0.070953	-0.17838	-0.00824	-0.019531	-0.00351	0.54413	0.008545	-0.25101	-0.017242	0.099182	0.088501	0.29282	0.009918	1.053	0.017853	-0.078583	0.098877	-1.028	0.027313	-0.024261	-0.015106	1.0977	-0.03891	-0.016327	-0.007019	0.041656	-0.098114	-0.3833	-0.2832	-0.000916	-0.01358
46.73	0.00412	0.088043	-0.020905	0.000458	-0.024567	-0.092926	0.44022	0.02243	-0.27618	-0.082092	0.3154	0.092163	0.068817	0.52612	0.70084	0.00885	-0.063934	0.17792	-1.042	0.0383	-0.013428	-0.006866	1.1763	-0.000458	-0.027466	-0.010071	-0.044556	-0.035553	-0.93811	-0.2388	-0.002136	-0.011444
46.731	0.007324	0.10819	0.096588	0.002441	-0.030823	-0.17914	0.34149	0.023499	-0.17883	-0.074158	0.62897	0.094604	0.22903	0.59204	0.16144	-0.000153	-0.028992	0.26367	-1.0176	-0.028381	0.00351	-0.000916	1.0924	-0.000763	-0.012665	-0.01358	-0.00061	0.096741	-0.89142	-0.61142	-0.008087	-0.020142
46.732	0.001373	0.14191	0.26627	-0.005341	-0.059814	-0.20706	0.29541	0.023041	-0.12116	-0.041199	0.60898	0.077362	0.62393	0.51621	-0.23743	-0.004578	-0.011597	0.28015	-0.97366	-0.044861	0.003967	-0.02655	1.0481	0.003204	-0.044403	0.001526	0.016785	0.065918	-0.1944	-0.62759	0.000763	-0.038757
46.733	0.003967	0.18539	0.23117	-0.01297	-0.13367	0.027924	0.28519	0.046692	-0.10254	-0.028534	0.18875	0.075836	0.21652	0.3093	-0.69977	0.002747	0.017853	0.28275	-1.0664	-0.000763	0.006409	-0.023041	0.90866	-0.001526	-0.051727	0.020905	0.065155	-0.011902	0.027924	-0.15579	0.001831	-0.030823
46.734	0.007477	0.28061	0.049438	-0.00885	-0.085754	0.17227	0.33402	0.035553	-0.057373	-0.056	-0.20813	0.067139	-0.42389	0.25589	-0.33493	-0.002136	0.037537	0.28763	-1.1539	-0.003662	0.000458	-0.026245	0.61569	0.012054	-0.05661	0.038147	0.057068	-0.055237	0.29984	0.002747	0.001373	-0.015106
46.735	0.002747	0.31754	-0.059509	0.033875	-0.088348	0.14496	0.28946	0.042877	-0.083466	-0.053101	-0.55206	0.053253	0.032196	0.23483	-0.10559	0.001984	0.042877	0.29297	-1.2096	0.019836	-0.007172	-0.041809	0.57953	0.036011	-0.035858	0.040894	0.049133	-0.059509	-0.021515	0.19379	0.008087	-0.015259
46.736	-0.00885	0.37048	-0.13184	0.032349	-0.084229	0.083008	0.13794	0.012207	0.025635	-0.032501	-0.36331	0.049133	0.12802	0.27161	0.097351	0.011749	0.042267	0.34027	-1.188	0.06012	-0.028381	-0.067139	0.52506	0.013275	-0.016479	0.031891	0.0737	-0.066223	-0.22659	-0.005798	-0.000458	-0.016174
46.737	0.00473	0.40314	-0.12619	0.017395	0.004883	-0.014801	-0.1004	-0.00061	0.13351	0.003815	-0.21576	0.036621	-0.31845	0.10941	-0.54199	0.005493	0.025635	0.37827	-1.1499	0.053558	-0.033264	-0.043182	0.49927	-0.015717	-0.00412	0.013885	0.098114	-0.057678	0.13901	-0.23621	-0.000305	-0.016785
46.738	0.023041	0.47287	-0.16953	0.007019	0.066833	-0.029755	-0.20279	-0.03418	0.19882	-0.019836	-0.18631	0.028687	-0.14938	0.022736	-0.76569	-0.000305	-0.050049	0.44342	-1.2592	0.046082	-0.065918	-0.057068	0.27679	-0.11673	-0.024261	-0.025635	0.053558	-0.019989	-0.4129	-0.36804	-0.000916	-0.005493
46.739	0.007629	0.51788	-0.12817	0.010681	0.10925	-0.03418	-0.2742	-0.046387	0.17838	-0.048676	-0.056152	0.021515	-0.32944	-0.1236	-0.4126	-0.001831	-0.061646	0.5542	-1.259	-0.000305	-0.11749	-0.028687	0.10223	-0.15198	-0.005646	-0.053101	-0.070496	-0.035706	-0.6221	-0.51071	0.001068	-0.005035
46.74	-0.001678	0.56961	0.006104	-0.004578	0.052795	-0.13443	-0.11688	-0.01358	0.12344	-0.00885	-0.015717	0.011444	-0.29053	-0.20935	0.18677	0.004425	-0.018311	0.61462	-1.1816	0.051727	-0.15442	-0.027618	0.097656	-0.12573	0.001068	-0.057831	-0.13519	-0.085754	-0.027618	-0.74081	-0.000916	-0.004883
46.741	-0.001373	0.6218	0.091858	0.009613	-0.005341	-0.048981	-0.097198	-0.004883	0.17777	0.01709	-0.042877	0.002289	1.2915	-0.18677	0.078125	0.001068	0.005035	0.61295	-1.1949	0.10391	-0.17151	-0.045929	0.20371	-0.048065	0.009613	-0.019226	-0.054626	-0.17716	0.51956	-0.18799	0.000305	-0.002136
